<svg width="85" height="85" viewBox="0 0 85 85" fill="none" xmlns="http://www.w3.org/2000/svg">
<path d="M67.2917 7.08333H21.25C16.9788 7.08333 10.625 9.91312 10.625 17.7083V67.2917C10.625 75.0869 16.9788 77.9167 21.25 77.9167H74.375V70.8333H21.2925C19.6562 70.7908 17.7083 70.1462 17.7083 67.2917C17.7083 66.934 17.7402 66.6152 17.7933 66.3248C18.19 64.2848 19.8617 63.7854 21.2925 63.75H74.375V14.1667C74.375 12.288 73.6287 10.4864 72.3003 9.15799C70.972 7.82961 69.1703 7.08333 67.2917 7.08333ZM67.2917 38.9583L60.2083 35.4167L53.125 38.9583V14.1667H67.2917V38.9583Z" fill="#002F46"/>
</svg>
