<svg width="85" height="85" viewBox="0 0 85 85" fill="none" xmlns="http://www.w3.org/2000/svg">
<path d="M71.7187 44.5187V42.5V40.4547L76.8187 35.9922C77.7588 35.1636 78.3758 34.0293 78.5605 32.7898C78.7452 31.5503 78.4858 30.2855 77.8281 29.2187L71.5593 18.5937C71.0935 17.7869 70.4238 17.1168 69.6172 16.6506C68.8106 16.1844 67.8956 15.9385 66.964 15.9375C66.3867 15.9331 65.8125 16.0228 65.264 16.2031L58.8093 18.3812C57.6949 17.6407 56.5325 16.9752 55.3297 16.3891L53.975 9.69531C53.7321 8.47238 53.0668 7.37385 52.0956 6.59202C51.1243 5.81018 49.9091 5.39486 48.6625 5.41875H36.2312C34.9846 5.39486 33.7694 5.81018 32.7981 6.59202C31.8269 7.37385 31.1616 8.47238 30.9187 9.69531L29.564 16.3891C28.3526 16.975 27.1813 17.6405 26.0578 18.3812L19.7359 16.0969C19.1815 15.9524 18.6075 15.8986 18.0359 15.9375C17.1043 15.9385 16.1893 16.1844 15.3827 16.6506C14.5762 17.1168 13.9064 17.7869 13.4406 18.5937L7.17184 29.2187C6.55184 30.2839 6.32145 31.5314 6.52013 32.7477C6.71881 33.9641 7.3342 35.0735 8.26091 35.8859L13.2812 40.4812V44.5453L8.26091 49.0078C7.30803 49.8259 6.6758 50.9552 6.47643 52.1952C6.27706 53.4351 6.52344 54.7057 7.17184 55.7812L13.4406 66.4062C13.9064 67.213 14.5762 67.8832 15.3827 68.3494C16.1893 68.8156 17.1043 69.0615 18.0359 69.0625C18.6132 69.0669 19.1874 68.9772 19.7359 68.7969L26.1906 66.6187C27.305 67.3593 28.4675 68.0248 29.6703 68.6109L31.025 75.3047C31.2679 76.5276 31.9332 77.6261 32.9044 78.408C33.8756 79.1898 35.0909 79.6051 36.3375 79.5812H48.875C50.1216 79.6051 51.3368 79.1898 52.3081 78.408C53.2793 77.6261 53.9446 76.5276 54.1875 75.3047L55.5422 68.6109C56.7536 68.025 57.9249 67.3594 59.0484 66.6187L65.4765 68.7969C66.025 68.9772 66.5992 69.0669 67.1765 69.0625C68.1081 69.0615 69.0231 68.8156 69.8297 68.3494C70.6363 67.8832 71.306 67.213 71.7718 66.4062L77.8281 55.7812C78.4481 54.7161 78.6785 53.4686 78.4798 52.2522C78.2811 51.0359 77.6657 49.9265 76.739 49.1141L71.7187 44.5187ZM66.964 63.75L57.8531 60.6687C55.7203 62.4753 53.2827 63.8874 50.6547 64.8391L48.7687 74.375H36.2312L34.3453 64.9453C31.738 63.9667 29.3136 62.557 27.1734 60.775L18.0359 63.75L11.7672 53.125L18.9922 46.75C18.501 44.0004 18.501 41.1855 18.9922 38.4359L11.7672 31.875L18.0359 21.25L27.1468 24.3312C29.2796 22.5247 31.7172 21.1125 34.3453 20.1609L36.2312 10.625H48.7687L50.6547 20.0547C53.262 21.0333 55.6863 22.443 57.8265 24.225L66.964 21.25L73.2328 31.875L66.0078 38.25C66.4989 40.9996 66.4989 43.8145 66.0078 46.5641L73.2328 53.125L66.964 63.75Z" fill="#002F46"/>
<path d="M42.5 58.4375C39.3479 58.4375 36.2665 57.5028 33.6456 55.7516C31.0247 54.0003 28.9819 51.5112 27.7757 48.599C26.5694 45.6868 26.2538 42.4823 26.8687 39.3908C27.4837 36.2992 29.0016 33.4594 31.2305 31.2305C33.4594 29.0016 36.2992 27.4837 39.3908 26.8687C42.4823 26.2538 45.6868 26.5694 48.599 27.7757C51.5112 28.9819 54.0003 31.0247 55.7516 33.6456C57.5028 36.2665 58.4375 39.3479 58.4375 42.5C58.4588 44.5989 58.0611 46.6809 57.2677 48.6241C56.4744 50.5674 55.3012 52.3328 53.817 53.817C52.3328 55.3012 50.5674 56.4744 48.6241 57.2677C46.6809 58.0611 44.5989 58.4588 42.5 58.4375ZM42.5 31.875C41.0958 31.8423 39.6995 32.0948 38.3956 32.6171C37.0917 33.1395 35.9074 33.9209 34.9142 34.9142C33.9209 35.9074 33.1395 37.0917 32.6171 38.3956C32.0948 39.6995 31.8423 41.0958 31.875 42.5C31.8423 43.9042 32.0948 45.3005 32.6171 46.6044C33.1395 47.9083 33.9209 49.0926 34.9142 50.0859C35.9074 51.0791 37.0917 51.8605 38.3956 52.3829C39.6995 52.9053 41.0958 53.1577 42.5 53.125C43.9042 53.1577 45.3005 52.9053 46.6044 52.3829C47.9083 51.8605 49.0926 51.0791 50.0859 50.0859C51.0791 49.0926 51.8605 47.9083 52.3829 46.6044C52.9053 45.3005 53.1577 43.9042 53.125 42.5C53.1577 41.0958 52.9053 39.6995 52.3829 38.3956C51.8605 37.0917 51.0791 35.9074 50.0859 34.9142C49.0926 33.9209 47.9083 33.1395 46.6044 32.6171C45.3005 32.0948 43.9042 31.8423 42.5 31.875Z" fill="#002F46"/>
</svg>
