<svg width="21" height="25" viewBox="0 0 21 25" fill="none" xmlns="http://www.w3.org/2000/svg">
<g clip-path="url(#clip0)">
<path d="M18.2783 1.5625H2.564C1.99568 1.5625 1.45063 1.80943 1.04877 2.24897C0.646907 2.68851 0.421143 3.28465 0.421143 3.90625L0.421143 21.0938C0.421143 21.7154 0.646907 22.3115 1.04877 22.751C1.45063 23.1906 1.99568 23.4375 2.564 23.4375H8.69123V16.0005H5.87873V12.5H8.69123V9.83203C8.69123 6.79736 10.343 5.12109 12.8729 5.12109C14.0845 5.12109 15.3515 5.35742 15.3515 5.35742V8.33594H13.9555C12.5801 8.33594 12.1511 9.26953 12.1511 10.2271V12.5H15.2216L14.7305 16.0005H12.1511V23.4375H18.2783C18.8466 23.4375 19.3917 23.1906 19.7935 22.751C20.1954 22.3115 20.4211 21.7154 20.4211 21.0938V3.90625C20.4211 3.28465 20.1954 2.68851 19.7935 2.24897C19.3917 1.80943 18.8466 1.5625 18.2783 1.5625Z" fill="black"/>
</g>
<defs>
<clipPath id="clip0">
<rect width="20" height="25" fill="white" transform="translate(0.421143)"/>
</clipPath>
</defs>
</svg>
