<svg width="21" height="20" viewBox="0 0 21 20" fill="none" xmlns="http://www.w3.org/2000/svg">
<path fill-rule="evenodd" clip-rule="evenodd" d="M6.64202 0.888252C7.61952 0.843252 7.93118 0.833252 10.4212 0.833252C12.9112 0.833252 13.2228 0.844085 14.1995 0.888252C15.1762 0.932419 15.8428 1.08825 16.4262 1.31409C17.037 1.54492 17.5912 1.90575 18.0495 2.37242C18.5162 2.82992 18.8762 3.38325 19.1062 3.99492C19.3328 4.57825 19.4878 5.24492 19.5328 6.21992C19.5778 7.19908 19.5878 7.51075 19.5878 9.99992C19.5878 12.4899 19.577 12.8016 19.5328 13.7791C19.4887 14.7541 19.3328 15.4207 19.1062 16.0041C18.8762 16.6158 18.5156 17.1701 18.0495 17.6282C17.5912 18.0949 17.037 18.4549 16.4262 18.6849C15.8428 18.9116 15.1762 19.0666 14.2012 19.1116C13.2228 19.1566 12.9112 19.1666 10.4212 19.1666C7.93118 19.1666 7.61952 19.1557 6.64202 19.1116C5.66702 19.0674 5.00035 18.9116 4.41702 18.6849C3.80528 18.4549 3.25103 18.0943 2.79285 17.6282C2.3265 17.1705 1.96561 16.6165 1.73535 16.0049C1.50952 15.4216 1.35452 14.7549 1.30952 13.7799C1.26452 12.8007 1.25452 12.4891 1.25452 9.99992C1.25452 7.50992 1.26535 7.19825 1.30952 6.22158C1.35368 5.24492 1.50952 4.57825 1.73535 3.99492C1.96595 3.38332 2.32712 2.82935 2.79368 2.37159C3.25122 1.90534 3.80491 1.54445 4.41618 1.31409C4.99952 1.08825 5.66618 0.933252 6.64118 0.888252H6.64202ZM14.1253 2.53825C13.1587 2.49408 12.8687 2.48492 10.4212 2.48492C7.97368 2.48492 7.68368 2.49408 6.71702 2.53825C5.82285 2.57908 5.33785 2.72825 5.01452 2.85408C4.58702 3.02075 4.28118 3.21825 3.96035 3.53908C3.65622 3.83496 3.42217 4.19515 3.27535 4.59325C3.14952 4.91658 3.00035 5.40158 2.95952 6.29575C2.91535 7.26242 2.90618 7.55242 2.90618 9.99992C2.90618 12.4474 2.91535 12.7374 2.95952 13.7041C3.00035 14.5982 3.14952 15.0833 3.27535 15.4066C3.42202 15.8041 3.65618 16.1649 3.96035 16.4607C4.25618 16.7649 4.61702 16.9991 5.01452 17.1458C5.33785 17.2716 5.82285 17.4207 6.71702 17.4616C7.68368 17.5057 7.97285 17.5149 10.4212 17.5149C12.8695 17.5149 13.1587 17.5057 14.1253 17.4616C15.0195 17.4207 15.5045 17.2716 15.8278 17.1458C16.2553 16.9791 16.5612 16.7816 16.882 16.4607C17.1862 16.1649 17.4203 15.8041 17.567 15.4066C17.6928 15.0833 17.842 14.5982 17.8828 13.7041C17.927 12.7374 17.9362 12.4474 17.9362 9.99992C17.9362 7.55242 17.927 7.26242 17.8828 6.29575C17.842 5.40158 17.6928 4.91658 17.567 4.59325C17.4003 4.16575 17.2028 3.85992 16.882 3.53908C16.5861 3.23498 16.2259 3.00093 15.8278 2.85408C15.5045 2.72825 15.0195 2.57908 14.1253 2.53825ZM9.25035 12.8257C9.90423 13.0979 10.6323 13.1347 11.3103 12.9297C11.9882 12.7247 12.574 12.2907 12.9675 11.7018C13.361 11.1129 13.5379 10.4056 13.4679 9.70084C13.3979 8.99603 13.0854 8.33739 12.5837 7.83742C12.2639 7.51781 11.8772 7.27309 11.4515 7.12087C11.0257 6.96865 10.5715 6.91272 10.1216 6.9571C9.67165 7.00148 9.23714 7.14507 8.84935 7.37753C8.46156 7.60999 8.13014 7.92554 7.87893 8.30146C7.62773 8.67738 7.46301 9.10432 7.39661 9.55155C7.33022 9.99878 7.36381 10.4552 7.49497 10.8878C7.62612 11.3205 7.85158 11.7188 8.15512 12.0539C8.45865 12.3889 8.8327 12.6526 9.25035 12.8257ZM7.08952 6.66825C7.52704 6.23073 8.04645 5.88367 8.6181 5.64689C9.18975 5.4101 9.80243 5.28823 10.4212 5.28823C11.0399 5.28823 11.6526 5.4101 12.2243 5.64689C12.7959 5.88367 13.3153 6.23073 13.7528 6.66825C14.1904 7.10577 14.5374 7.62518 14.7742 8.19683C15.011 8.76848 15.1329 9.38117 15.1329 9.99992C15.1329 10.6187 15.011 11.2314 14.7742 11.803C14.5374 12.3747 14.1904 12.8941 13.7528 13.3316C12.8692 14.2152 11.6708 14.7116 10.4212 14.7116C9.17156 14.7116 7.97313 14.2152 7.08952 13.3316C6.2059 12.448 5.70949 11.2495 5.70949 9.99992C5.70949 8.7503 6.2059 7.55186 7.08952 6.66825ZM16.1778 5.98992C16.2863 5.88764 16.3731 5.76465 16.4331 5.62823C16.4931 5.49181 16.5252 5.34473 16.5274 5.19569C16.5295 5.04666 16.5018 4.89871 16.4457 4.76059C16.3897 4.62248 16.3065 4.49701 16.2011 4.39162C16.0958 4.28622 15.9703 4.20305 15.8322 4.14702C15.6941 4.09098 15.5461 4.06323 15.3971 4.0654C15.248 4.06758 15.101 4.09963 14.9645 4.15967C14.8281 4.2197 14.7051 4.3065 14.6028 4.41492C14.4039 4.62578 14.295 4.90585 14.2993 5.19569C14.3035 5.48553 14.4205 5.76232 14.6255 5.96729C14.8304 6.17226 15.1072 6.28927 15.3971 6.2935C15.6869 6.29773 15.967 6.18883 16.1778 5.98992Z" fill="black"/>
</svg>
