<svg width="99" height="45" viewBox="0 0 99 45" fill="none" xmlns="http://www.w3.org/2000/svg">
<path opacity="0.99" d="M12.696 23.76C12.664 23.024 12.504 22.384 12.216 21.84C11.944 21.296 11.568 20.84 11.088 20.472C10.608 20.104 10.032 19.832 9.36 19.656C8.704 19.464 7.984 19.368 7.2 19.368C6.72 19.368 6.2 19.424 5.64 19.536C5.096 19.648 4.584 19.848 4.104 20.136C3.64 20.408 3.256 20.784 2.952 21.264C2.648 21.728 2.496 22.312 2.496 23.016C2.496 23.704 2.664 24.264 3 24.696C3.336 25.128 3.776 25.48 4.32 25.752C4.864 26.008 5.488 26.216 6.192 26.376C6.896 26.536 7.608 26.688 8.328 26.832C9.064 26.976 9.776 27.152 10.464 27.36C11.168 27.552 11.792 27.824 12.336 28.176C12.896 28.512 13.344 28.96 13.68 29.52C14.016 30.064 14.184 30.752 14.184 31.584C14.184 32.48 13.992 33.232 13.608 33.84C13.224 34.448 12.736 34.944 12.144 35.328C11.568 35.712 10.92 35.984 10.2 36.144C9.496 36.32 8.816 36.408 8.16 36.408C7.152 36.408 6.208 36.296 5.328 36.072C4.448 35.864 3.68 35.52 3.024 35.04C2.368 34.544 1.848 33.912 1.464 33.144C1.096 32.376 0.92 31.44 0.936 30.336H1.992C1.944 31.28 2.08 32.08 2.4 32.736C2.72 33.376 3.16 33.904 3.72 34.32C4.296 34.736 4.968 35.04 5.736 35.232C6.504 35.408 7.312 35.496 8.16 35.496C8.672 35.496 9.216 35.432 9.792 35.304C10.384 35.176 10.92 34.96 11.4 34.656C11.896 34.352 12.304 33.952 12.624 33.456C12.96 32.96 13.128 32.336 13.128 31.584C13.128 30.864 12.96 30.28 12.624 29.832C12.288 29.368 11.84 29 11.28 28.728C10.736 28.44 10.112 28.216 9.408 28.056C8.72 27.88 8.008 27.72 7.272 27.576C6.552 27.432 5.84 27.264 5.136 27.072C4.432 26.88 3.808 26.624 3.264 26.304C2.72 25.968 2.28 25.544 1.944 25.032C1.608 24.504 1.44 23.832 1.44 23.016C1.44 22.2 1.608 21.504 1.944 20.928C2.296 20.336 2.744 19.864 3.288 19.512C3.848 19.144 4.472 18.88 5.16 18.72C5.848 18.544 6.528 18.456 7.2 18.456C8.096 18.456 8.928 18.56 9.696 18.768C10.48 18.96 11.16 19.272 11.736 19.704C12.328 20.12 12.8 20.664 13.152 21.336C13.504 22.008 13.704 22.816 13.752 23.76H12.696ZM17.3732 18.864V26.304H17.4212C17.5812 25.84 17.8052 25.432 18.0932 25.08C18.3972 24.712 18.7412 24.4 19.1252 24.144C19.5252 23.888 19.9572 23.696 20.4212 23.568C20.8852 23.44 21.3572 23.376 21.8372 23.376C22.5572 23.376 23.1652 23.464 23.6612 23.64C24.1732 23.816 24.5892 24.048 24.9092 24.336C25.2292 24.624 25.4772 24.952 25.6532 25.32C25.8452 25.672 25.9812 26.032 26.0612 26.4C26.1412 26.768 26.1892 27.128 26.2052 27.48C26.2212 27.816 26.2292 28.112 26.2292 28.368V36H25.3172V28.2C25.3172 27.896 25.2932 27.512 25.2452 27.048C25.1972 26.584 25.0532 26.144 24.8132 25.728C24.5892 25.296 24.2372 24.928 23.7572 24.624C23.2932 24.32 22.6452 24.168 21.8132 24.168C21.1092 24.168 20.4852 24.296 19.9412 24.552C19.3972 24.808 18.9332 25.168 18.5492 25.632C18.1652 26.08 17.8692 26.624 17.6612 27.264C17.4692 27.888 17.3732 28.576 17.3732 29.328V36H16.4612V18.864H17.3732ZM49.8576 26.4H49.9296C50.0416 26 50.2416 25.624 50.5296 25.272C50.8336 24.92 51.1936 24.616 51.6096 24.36C52.0416 24.104 52.5136 23.912 53.0256 23.784C53.5536 23.64 54.0976 23.576 54.6576 23.592V24.504C54.1776 24.44 53.6256 24.488 53.0016 24.648C52.3936 24.808 51.8096 25.16 51.2496 25.704C51.0256 25.944 50.8256 26.176 50.6496 26.4C50.4896 26.624 50.3536 26.872 50.2416 27.144C50.1296 27.416 50.0416 27.72 49.9776 28.056C49.9136 28.392 49.8736 28.792 49.8576 29.256V36H48.9456V23.664H49.8576V26.4ZM60.7941 24.456H58.1061V33.072C58.1061 33.568 58.1621 33.96 58.2741 34.248C58.3861 34.536 58.5541 34.76 58.7781 34.92C59.0181 35.064 59.2981 35.152 59.6181 35.184C59.9541 35.216 60.3381 35.224 60.7701 35.208V36C60.3061 36.032 59.8501 36.032 59.4021 36C58.9701 35.952 58.5861 35.832 58.2501 35.64C57.9141 35.432 57.6421 35.128 57.4341 34.728C57.2421 34.328 57.1621 33.776 57.1941 33.072V24.456H54.9141V23.664H57.1941V19.824H58.1061V23.664H60.7941V24.456ZM60.981 23.664H62.061L66.645 34.92L70.869 23.664H71.901L66.621 37.32C66.365 37.928 66.125 38.448 65.901 38.88C65.693 39.328 65.453 39.656 65.181 39.864C64.861 40.12 64.477 40.272 64.029 40.32C63.597 40.384 63.021 40.416 62.301 40.416V39.624C62.957 39.624 63.469 39.568 63.837 39.456C64.205 39.36 64.549 39.152 64.869 38.832C65.045 38.656 65.229 38.328 65.421 37.848C65.613 37.384 65.853 36.744 66.141 35.928L60.981 23.664Z" fill="#4D9CA1"/>
<path opacity="0.99" d="M27.9502 23.069C27.9502 23.069 27.9502 23.069 27.9502 23.0226C28.1664 22.6674 29.7343 20.4275 34.708 20.1649C40.1142 19.8869 43.3657 24.6523 43.3657 24.6523C44.5651 26.5323 45.1083 28.7566 44.9103 30.9779C44.7544 32.1451 44.3632 33.2685 43.7605 34.2801C43.1578 35.2917 42.3561 36.1705 41.404 36.8633C40.2521 37.6242 38.9204 38.069 37.5424 38.1531C36.0507 38.1594 34.5928 37.7093 33.3642 36.8633C32.7919 36.4591 32.3116 35.9384 31.9549 35.3354C31.5981 34.7324 31.373 34.0607 31.2943 33.3645C31.1799 32.4824 31.3248 31.586 31.7114 30.7848C31.9714 30.1733 32.3999 29.6482 32.9468 29.2708C33.4938 28.8934 34.1367 28.6792 34.8007 28.6531C35.4304 28.5457 36.0776 28.6759 36.6169 29.0183C37.1563 29.3607 37.5493 29.8911 37.72 30.5068C37.736 30.6366 37.778 30.7618 37.8435 30.875C37.909 30.9882 37.9966 31.0871 38.1011 31.1657C38.2057 31.2442 38.325 31.3009 38.4519 31.3324C38.5788 31.3638 38.7108 31.3694 38.8399 31.3487C39.7899 31.1787 40.5158 29.997 40.4309 28.7149C40.3641 27.3562 39.8541 26.0567 38.9789 25.0153C38.2527 24.2142 37.3763 23.5634 36.3994 23.0999C35.668 22.7533 34.8857 22.5265 34.0824 22.4279C32.6858 22.2611 31.2701 22.3633 29.9119 22.7291C29.2686 22.8968 28.6124 23.0105 27.9502 23.069Z" fill="#4D9CA1"/>
</svg>
