<svg width="21" height="20" viewBox="0 0 21 20" fill="none" xmlns="http://www.w3.org/2000/svg">
<g clip-path="url(#clip0)">
<path d="M6.70364 18.7499C14.2511 18.7499 18.3799 12.4961 18.3799 7.08239C18.3799 6.90739 18.3799 6.72989 18.3724 6.55489C19.1762 5.973 19.87 5.25258 20.4211 4.42739C19.6703 4.75845 18.8746 4.97665 18.0599 5.07489C18.9181 4.56194 19.5608 3.75485 19.8686 2.80364C19.0624 3.28129 18.1799 3.61661 17.2599 3.79489C16.6414 3.13617 15.8229 2.69979 14.9312 2.55334C14.0396 2.40689 13.1245 2.55854 12.3278 2.98481C11.5311 3.41108 10.8972 4.08818 10.5242 4.91122C10.1513 5.73425 10.0601 6.65731 10.2649 7.53739C8.63332 7.45558 7.03716 7.03172 5.57995 6.29332C4.12273 5.55491 2.837 4.51844 1.80614 3.25114C1.28282 4.15499 1.12311 5.22414 1.35945 6.24147C1.59579 7.2588 2.21046 8.14805 3.07864 8.72864C2.42807 8.70654 1.79179 8.53184 1.22114 8.21864V8.27489C1.22226 9.22174 1.55028 10.1392 2.14973 10.8721C2.74919 11.605 3.58333 12.1085 4.51114 12.2974C4.15897 12.3944 3.79518 12.4428 3.42989 12.4411C3.17237 12.4419 2.91537 12.4181 2.66239 12.3699C2.92463 13.185 3.43523 13.8976 4.1227 14.408C4.81017 14.9184 5.64006 15.201 6.49614 15.2161C5.04184 16.3584 3.24539 16.9779 1.39614 16.9749C1.07029 16.9763 0.744671 16.9575 0.421143 16.9186C2.29804 18.1152 4.47776 18.7506 6.70364 18.7499Z" fill="black"/>
</g>
<defs>
<clipPath id="clip0">
<rect width="20" height="20" fill="white" transform="translate(0.421143)"/>
</clipPath>
</defs>
</svg>
